<svg width="56" height="77" viewBox="0 0 56 77" fill="none" xmlns="http://www.w3.org/2000/svg">
<path d="M30.8902 20.5217L35.4189 6.55178C35.5034 6.33844 35.5439 6.10983 35.5377 5.88007C35.5315 5.65031 35.4787 5.42427 35.3828 5.21592C35.2868 5.00757 35.1495 4.82132 34.9796 4.66869C34.8096 4.51605 34.6105 4.40026 34.3946 4.32847C34.1786 4.25668 33.9504 4.23043 33.724 4.25131C33.4977 4.2722 33.2779 4.33979 33.0784 4.4499C32.8788 4.56002 32.7038 4.7103 32.5639 4.89152C32.4241 5.07273 32.3225 5.28101 32.2653 5.50348L30.6382 10.4974L19.7161 1.45592C19.0178 0.833236 18.1806 0.391003 17.2763 0.167105C16.3719 -0.0567932 15.4273 -0.0556807 14.5235 0.170348C13.6197 0.396377 12.7835 0.840578 12.0866 1.46491C11.3897 2.08924 10.8529 2.87507 10.5222 3.75509C10.1915 4.63512 10.0766 5.58309 10.1876 6.51781C10.2985 7.45252 10.6319 8.34611 11.1592 9.12201C11.6865 9.89791 12.392 10.533 13.2152 10.9729C14.0384 11.4127 14.9548 11.6443 15.8858 11.6476H30.2854L27.4415 20.3834C20.1664 20.5301 13.2335 23.5348 8.11155 28.7607C2.9896 33.9867 0.0809106 41.0235 0.00166264 48.3805C-0.0775853 55.7375 2.67883 62.8367 7.687 68.1743C12.6952 73.5118 19.5617 76.6684 26.8319 76.9753C34.1021 77.2823 41.205 74.7154 46.6358 69.8186C52.0666 64.9218 55.3987 58.0796 55.9263 50.7415C56.4538 43.4035 54.1354 36.146 49.4622 30.5065C44.7889 24.8669 38.1279 21.2884 30.8902 20.529V20.5217ZM27.9383 67.1197C24.3443 67.1211 20.8307 66.0446 17.8421 64.0263C14.8535 62.008 12.5241 59.1387 11.1487 55.7814C9.77341 52.4242 9.41392 48.7299 10.1158 45.166C10.8176 41.6021 12.5492 38.3287 15.0915 35.7602C17.6338 33.1917 20.8725 31.4434 24.3978 30.7366C27.9231 30.0298 31.5766 30.3962 34.8959 31.7895C38.2151 33.1828 41.0511 35.5403 43.0448 38.5638C45.0385 41.5872 46.1004 45.1407 46.0961 48.7746C46.0885 53.6415 44.173 58.3069 40.7694 61.7483C37.3658 65.1897 32.7517 67.1265 27.9383 67.1342" fill="white"/>
</svg>
