<svg width="404" height="77" viewBox="0 0 404 77" fill="none" xmlns="http://www.w3.org/2000/svg">
<g clip-path="url(#clip0_147_4350)">
<path d="M195.665 26.9273C190.769 22.7671 184.603 20.4064 178.185 20.2359C171.768 20.0654 165.485 22.0953 160.376 25.9896C155.268 29.8839 151.64 35.409 150.094 41.6503C148.547 47.8916 149.175 54.4747 151.873 60.3098C154.571 66.145 159.178 70.8821 164.93 73.7371C170.682 76.5921 177.235 77.3938 183.504 76.0092C189.773 74.6247 195.382 71.1371 199.402 66.1238C203.423 61.1105 205.614 54.8722 205.612 48.4415V4.43604H195.665V26.9273ZM177.438 66.6632C173.832 66.6632 170.306 65.5915 167.308 63.5837C164.31 61.5759 161.974 58.7222 160.596 55.3839C159.217 52.0457 158.858 48.3728 159.565 44.8301C160.271 41.2875 162.01 38.0343 164.563 35.4823C167.116 32.9304 170.367 31.1943 173.905 30.4939C177.442 29.7935 181.108 30.1603 184.438 31.5477C187.768 32.9352 190.612 35.281 192.61 38.2882C194.609 41.2954 195.672 44.829 195.665 48.4415C195.651 53.2764 193.725 57.9088 190.309 61.3242C186.893 64.7395 182.265 66.6594 177.438 66.6632Z" fill="#A5CF8D"/>
<path d="M375.841 76.6205C380.585 76.632 385.256 75.437 389.414 73.1474C393.572 70.8579 397.082 67.5486 399.615 63.5296L391.228 58.189C389.343 61.1628 386.64 63.5269 383.444 64.9964C380.248 66.4658 376.696 66.9778 373.216 66.4707C369.737 65.9635 366.478 64.4589 363.832 62.1381C361.187 59.8174 359.268 56.7796 358.308 53.3912H404V48.4414C404 42.8595 402.348 37.4029 399.252 32.7617C396.156 28.1206 391.756 24.5032 386.608 22.3671C381.46 20.231 375.795 19.6721 370.33 20.7611C364.864 21.85 359.844 24.538 355.904 28.485C351.964 32.432 349.281 37.4608 348.193 42.9354C347.106 48.4101 347.664 54.0847 349.797 59.2417C351.929 64.3987 355.54 68.8064 360.173 71.9076C364.807 75.0087 370.254 76.664 375.826 76.664L375.841 76.6205ZM375.826 30.198C379.792 30.2022 383.649 31.5005 386.812 33.8965C389.976 36.2925 392.274 39.6558 393.359 43.4771H358.308C359.394 39.6564 361.692 36.2938 364.855 33.898C368.019 31.5022 371.875 30.2034 375.841 30.198" fill="#A5CF8D"/>
<path d="M9.94039 53.3913H22.3586V43.4338H9.94039V32.6441C9.95377 27.8112 11.8787 23.1806 15.2936 19.7666C18.7085 16.3526 23.3349 14.4335 28.1595 14.4297V4.43604C20.6874 4.43604 13.5212 7.40947 8.23756 12.7022C2.95392 17.995 -0.0144043 25.1735 -0.0144043 32.6586V76.6352H9.92594L9.94039 53.3913Z" fill="#A5CF8D"/>
<path d="M56.514 76.6205C62.0863 76.6205 67.5335 74.9653 72.1666 71.8641C76.7998 68.763 80.4109 64.3552 82.5434 59.1982C84.6758 54.0412 85.2337 48.3666 84.1466 42.8919C83.0595 37.4173 80.3762 32.3885 76.436 28.4415C72.4958 24.4945 67.4757 21.8066 62.0105 20.7176C56.5453 19.6286 50.8804 20.1875 45.7323 22.3236C40.5842 24.4597 36.184 28.0771 33.0882 32.7183C29.9925 37.3595 28.3401 42.816 28.3401 48.3979C28.3401 55.883 31.3084 63.0615 36.592 68.3543C41.8757 73.647 49.0418 76.6205 56.514 76.6205V76.6205ZM56.514 30.1545C60.1179 30.1531 63.6414 31.222 66.639 33.226C69.6367 35.2301 71.9739 38.0793 73.3554 41.4137C74.7368 44.7481 75.1005 48.4179 74.4004 51.9592C73.7003 55.5006 71.9678 58.7545 69.422 61.3098C66.8762 63.8651 63.6312 65.607 60.0974 66.3153C56.5635 67.0237 52.8993 66.6666 49.568 65.2894C46.2366 63.9122 43.3877 61.5765 41.3811 58.5777C39.3746 55.5789 38.3006 52.0514 38.2949 48.4413C38.3006 43.6021 40.2217 38.9625 43.637 35.54C47.0523 32.1174 51.6831 30.1911 56.514 30.1835" fill="#A5CF8D"/>
<path d="M270.087 56.7055C270.087 58.0131 269.83 59.308 269.33 60.5161C268.831 61.7242 268.099 62.8219 267.176 63.7465C266.252 64.6712 265.157 65.4046 263.951 65.905C262.745 66.4054 261.452 66.663 260.147 66.663C258.841 66.663 257.549 66.4054 256.343 65.905C255.137 65.4046 254.041 64.6712 253.118 63.7465C252.195 62.8219 251.463 61.7242 250.963 60.5161C250.463 59.308 250.206 58.0131 250.206 56.7055V20.2188H240.288V56.72C240.323 58.0497 240.093 59.3732 239.61 60.6122C239.126 61.8512 238.4 62.9806 237.474 63.9339C236.548 64.8871 235.44 65.6447 234.217 66.162C232.993 66.6793 231.679 66.9459 230.351 66.9459C229.023 66.9459 227.708 66.6793 226.485 66.162C225.262 65.6447 224.154 64.8871 223.228 63.9339C222.302 62.9806 221.575 61.8512 221.092 60.6122C220.609 59.3732 220.378 58.0497 220.414 56.72V20.2188H210.452V56.72C210.447 60.7669 211.674 64.7191 213.97 68.0493C216.265 71.3794 219.52 73.929 223.3 75.3578C227.079 76.7866 231.204 77.0266 235.124 76.0459C239.043 75.0651 242.571 72.9102 245.236 69.8688C247.904 72.9072 251.433 75.0589 255.352 76.0369C259.272 77.0149 263.396 76.7728 267.175 75.3428C270.953 73.9128 274.207 71.3629 276.502 68.0331C278.797 64.7033 280.024 60.7518 280.02 56.7055V20.2188H270.087V56.7055Z" fill="#A5CF8D"/>
<path d="M304.907 20.2046V30.1549H328.573L301.765 76.6208H342.653V66.6633H318.987L345.796 20.2046H304.907Z" fill="#A5CF8D"/>
<path d="M295.624 20.2046H285.684V76.6208H295.624V20.2046Z" fill="#A5CF8D"/>
<path d="M296.072 11.5349C296.074 12.6418 295.747 13.7244 295.134 14.6454C294.521 15.5664 293.649 16.2845 292.628 16.7088C291.608 17.133 290.484 17.2444 289.4 17.0288C288.316 16.8132 287.321 16.2803 286.539 15.4976C285.758 14.7148 285.226 13.7174 285.011 12.6316C284.796 11.5459 284.907 10.4205 285.33 9.39809C285.754 8.37565 286.471 7.50209 287.39 6.88797C288.31 6.27386 289.39 5.94682 290.495 5.94825C291.974 5.94825 293.393 6.53684 294.439 7.58453C295.485 8.63223 296.072 10.0532 296.072 11.5349" fill="#A5CF8D"/>
<path d="M120.541 20.3564L125.085 6.46941C125.17 6.25734 125.211 6.03009 125.204 5.80169C125.198 5.5733 125.145 5.3486 125.049 5.14148C124.953 4.93437 124.815 4.74923 124.644 4.59751C124.474 4.44578 124.274 4.33067 124.057 4.25931C123.841 4.18795 123.612 4.16185 123.385 4.18261C123.157 4.20337 122.937 4.27056 122.737 4.38002C122.536 4.48948 122.361 4.63887 122.22 4.81901C122.08 4.99915 121.978 5.20619 121.921 5.42734L120.288 10.3916L109.329 1.40382C108.629 0.78483 107.789 0.345224 106.881 0.122655C105.974 -0.0999129 105.026 -0.0988071 104.119 0.12588C103.212 0.350566 102.373 0.792129 101.674 1.41275C100.975 2.03337 100.436 2.81454 100.104 3.68934C99.7725 4.56413 99.6573 5.50648 99.7686 6.43564C99.8799 7.3648 100.214 8.25308 100.744 9.02438C101.273 9.79567 101.98 10.427 102.806 10.8643C103.632 11.3015 104.552 11.5317 105.486 11.535H119.934L117.081 20.2189C109.781 20.3648 102.825 23.3515 97.6856 28.5465C92.5463 33.7414 89.6278 40.7365 89.5483 48.0497C89.4688 55.363 92.2345 62.4201 97.2596 67.7259C102.285 73.0318 109.174 76.1696 116.469 76.4747C123.764 76.7798 130.891 74.2283 136.34 69.3605C141.789 64.4927 145.132 57.6912 145.662 50.3967C146.191 43.1022 143.865 35.8879 139.176 30.2818C134.487 24.6758 127.803 21.1185 120.541 20.3636V20.3564ZM117.579 66.6776C113.973 66.679 110.448 65.6089 107.449 63.6026C104.45 61.5963 102.113 58.744 100.733 55.4067C99.353 52.0694 98.9923 48.397 99.6965 44.8543C100.401 41.3115 102.138 38.0576 104.689 35.5044C107.24 32.9511 110.49 31.2132 114.027 30.5106C117.564 29.808 121.23 30.1722 124.56 31.5572C127.891 32.9423 130.736 35.2858 132.737 38.2913C134.737 41.2968 135.803 44.8292 135.798 48.4415C135.791 53.2795 133.869 57.9171 130.454 61.3381C127.039 64.7591 122.409 66.6844 117.579 66.6921" fill="#A5CF8D"/>
</g>
<defs>
<clipPath id="clip0_147_4350">
<rect width="404" height="76.6207" fill="white"/>
</clipPath>
</defs>
</svg>
