<svg width="95" height="18" viewBox="0 0 95 18" fill="none" xmlns="http://www.w3.org/2000/svg">
<g clip-path="url(#clip0_15_174)">
<path d="M45.966 6.32583C44.816 5.34852 43.3672 4.79393 41.8597 4.75387C40.3521 4.71381 38.8761 5.19068 37.676 6.10555C36.4758 7.02041 35.6236 8.31839 35.2603 9.78462C34.8971 11.2508 35.0445 12.7974 35.6784 14.1682C36.3122 15.539 37.3943 16.6519 38.7457 17.3226C40.097 17.9933 41.6364 18.1816 43.1092 17.8563C44.5819 17.5311 45.8996 16.7118 46.8441 15.534C47.7886 14.3563 48.3033 12.8907 48.3029 11.38V1.04211H45.966V6.32583ZM41.6842 15.6607C40.8369 15.6607 40.0088 15.409 39.3044 14.9373C38.6001 14.4656 38.0513 13.7952 37.7275 13.011C37.4036 12.2267 37.3194 11.3639 37.4853 10.5316C37.6512 9.69938 38.0598 8.93513 38.6595 8.33562C39.2591 7.7361 40.0229 7.32827 40.854 7.16373C41.6852 6.99919 42.5464 7.08535 43.3286 7.41129C44.1109 7.73723 44.779 8.28831 45.2485 8.99478C45.7179 9.70125 45.9676 10.5314 45.966 11.38C45.9628 12.5159 45.5104 13.6041 44.7079 14.4065C43.9053 15.2088 42.818 15.6598 41.6842 15.6607Z" fill="white"/>
<path d="M88.294 18C89.4087 18.0027 90.5058 17.7219 91.4827 17.1841C92.4595 16.6462 93.2841 15.8688 93.8792 14.9246L91.9088 13.67C91.4661 14.3686 90.831 14.924 90.0802 15.2692C89.3295 15.6144 88.495 15.7347 87.6776 15.6155C86.8601 15.4964 86.0945 15.1429 85.473 14.5977C84.8515 14.0525 84.4008 13.3389 84.1751 12.5429H94.9093V11.38C94.9093 10.0687 94.5211 8.78684 93.7939 7.69652C93.0666 6.6062 92.0329 5.75639 90.8235 5.25457C89.6141 4.75275 88.2833 4.62145 86.9994 4.87728C85.7154 5.1331 84.5361 5.76456 83.6105 6.69181C82.6848 7.61905 82.0544 8.80043 81.7991 10.0866C81.5437 11.3727 81.6747 12.7058 82.1757 13.9173C82.6767 15.1288 83.525 16.1643 84.6134 16.8928C85.7019 17.6213 86.9815 18.0102 88.2906 18.0102L88.294 18ZM88.2906 7.09424C89.2223 7.09522 90.1283 7.40023 90.8715 7.96311C91.6147 8.52599 92.1546 9.31609 92.4095 10.2138H84.1751C84.4302 9.31624 84.9702 8.52629 85.7133 7.96345C86.4565 7.40061 87.3624 7.09549 88.294 7.09424" fill="white"/>
<path d="M2.3352 12.5429H5.25253V10.2036H2.3352V7.66886C2.33834 6.5335 2.79056 5.44566 3.5928 4.64363C4.39503 3.8416 5.48189 3.39076 6.6153 3.38987V1.04211C4.85991 1.04211 3.17641 1.74064 1.93516 2.98404C0.69391 4.22743 -0.00341797 5.91384 -0.00341797 7.67226V18.0034H2.3318L2.3352 12.5429Z" fill="white"/>
<path d="M13.2764 18C14.5855 18 15.8652 17.6111 16.9536 16.8826C18.042 16.1541 18.8904 15.1186 19.3913 13.9071C19.8923 12.6956 20.0234 11.3625 19.768 10.0764C19.5126 8.79024 18.8822 7.60886 17.9566 6.68161C17.0309 5.75437 15.8516 5.12291 14.5677 4.86708C13.2838 4.61126 11.953 4.74256 10.7436 5.24438C9.53415 5.7462 8.50044 6.596 7.77317 7.68633C7.04589 8.77665 6.65771 10.0585 6.65771 11.3698C6.65771 13.1283 7.35504 14.8147 8.59629 16.0581C9.83754 17.3015 11.521 18 13.2764 18ZM13.2764 7.08404C14.1231 7.08371 14.9508 7.33481 15.655 7.80561C16.3592 8.2764 16.9083 8.94577 17.2329 9.72909C17.5574 10.5124 17.6428 11.3745 17.4784 12.2065C17.3139 13.0384 16.9069 13.8029 16.3088 14.4032C15.7107 15.0034 14.9484 15.4127 14.1182 15.5791C13.2881 15.7455 12.4273 15.6616 11.6446 15.338C10.862 15.0145 10.1927 14.4658 9.72136 13.7613C9.24998 13.0568 8.99767 12.2281 8.99633 11.38C8.99768 10.2432 9.44899 9.15325 10.2513 8.34921C11.0537 7.54517 12.1415 7.09264 13.2764 7.09084" fill="white"/>
<path d="M63.4496 13.3215C63.4496 13.6287 63.3892 13.9329 63.2718 14.2167C63.1545 14.5005 62.9824 14.7584 62.7656 14.9756C62.5488 15.1928 62.2913 15.3651 62.008 15.4827C61.7247 15.6002 61.421 15.6607 61.1143 15.6607C60.8077 15.6607 60.504 15.6002 60.2207 15.4827C59.9374 15.3651 59.6799 15.1928 59.4631 14.9756C59.2463 14.7584 59.0742 14.5005 58.9569 14.2167C58.8395 13.9329 58.7791 13.6287 58.7791 13.3215V4.74988H56.449V13.3249C56.4574 13.6373 56.4032 13.9482 56.2897 14.2392C56.1762 14.5303 56.0056 14.7957 55.788 15.0196C55.5704 15.2435 55.3102 15.4215 55.0228 15.543C54.7354 15.6646 54.4266 15.7272 54.1146 15.7272C53.8027 15.7272 53.4939 15.6646 53.2065 15.543C52.919 15.4215 52.6589 15.2435 52.4413 15.0196C52.2237 14.7957 52.0531 14.5303 51.9395 14.2392C51.826 13.9482 51.7718 13.6373 51.7803 13.3249V4.74988H49.4399V13.3249C49.4387 14.2756 49.727 15.2041 50.2663 15.9864C50.8055 16.7687 51.5702 17.3677 52.4581 17.7033C53.3461 18.039 54.3151 18.0954 55.2359 17.865C56.1567 17.6346 56.9854 17.1283 57.6115 16.4138C58.2382 17.1276 59.0672 17.6331 59.988 17.8629C60.9088 18.0926 61.8777 18.0357 62.7654 17.6998C63.6531 17.3639 64.4175 16.7648 64.9566 15.9826C65.4958 15.2004 65.7841 14.2721 65.7831 13.3215V4.74988H63.4496V13.3215Z" fill="white"/>
<path d="M71.6298 4.74652V7.08407H77.1896L70.8916 18H80.4973V15.6608H74.9375L81.2355 4.74652H71.6298Z" fill="white"/>
<path d="M69.449 4.74652H67.1138V18H69.449V4.74652Z" fill="white"/>
<path d="M69.5544 2.70989C69.5547 2.96995 69.478 3.22425 69.334 3.44062C69.19 3.65699 68.9851 3.82569 68.7453 3.92536C68.5056 4.02503 68.2417 4.0512 67.987 4.00055C67.7324 3.9499 67.4985 3.82471 67.3149 3.64082C67.1313 3.45693 67.0064 3.22262 66.9558 2.96755C66.9052 2.71247 66.9313 2.44811 67.0309 2.20791C67.1304 1.96772 67.2988 1.7625 67.5148 1.61823C67.7307 1.47396 67.9846 1.39713 68.2442 1.39746C68.5917 1.39746 68.9249 1.53574 69.1707 1.78186C69.4164 2.02799 69.5544 2.36181 69.5544 2.70989Z" fill="white"/>
<path d="M28.3179 4.7822L29.3854 1.51983C29.4054 1.47001 29.4149 1.41663 29.4134 1.36297C29.412 1.30931 29.3995 1.25653 29.3769 1.20787C29.3543 1.15922 29.3219 1.11572 29.2819 1.08008C29.2418 1.04443 29.1949 1.01739 29.144 1.00063C29.0931 0.983863 29.0393 0.977732 28.9859 0.982609C28.9326 0.987486 28.8808 1.00327 28.8337 1.02899C28.7867 1.0547 28.7454 1.0898 28.7125 1.13211C28.6795 1.17443 28.6556 1.22307 28.6421 1.27503L28.2586 2.44125L25.684 0.329806C25.5194 0.184391 25.3221 0.0811173 25.1089 0.0288308C24.8957 -0.0234557 24.6731 -0.0231959 24.46 0.0295883C24.247 0.0823725 24.0499 0.186106 23.8856 0.331904C23.7214 0.477703 23.5948 0.661217 23.5169 0.866728C23.4389 1.07224 23.4119 1.29362 23.438 1.5119C23.4642 1.73018 23.5427 1.93886 23.667 2.12005C23.7913 2.30125 23.9576 2.44956 24.1517 2.55229C24.3457 2.65501 24.5617 2.70907 24.7812 2.70986H28.1754L27.505 4.7499C25.7902 4.78417 24.156 5.48584 22.9486 6.70625C21.7413 7.92667 21.0557 9.56996 21.037 11.288C21.0183 13.0061 21.6681 14.664 22.8486 15.9104C24.0291 17.1569 25.6476 17.894 27.3613 17.9657C29.0751 18.0374 30.7493 17.438 32.0294 16.2944C33.3096 15.1509 34.095 13.553 34.2194 11.8394C34.3437 10.1257 33.7972 8.43092 32.6957 7.11393C31.5941 5.79694 30.024 4.96126 28.3179 4.78391V4.7822ZM27.6221 15.6641C26.775 15.6645 25.9468 15.4131 25.2423 14.9418C24.5378 14.4704 23.9888 13.8004 23.6646 13.0164C23.3404 12.2323 23.2556 11.3696 23.4211 10.5373C23.5865 9.70506 23.9947 8.94065 24.5939 8.34083C25.1932 7.74101 25.9566 7.33273 26.7876 7.16767C27.6186 7.00261 28.4797 7.08818 29.2621 7.41355C30.0446 7.73892 30.713 8.28947 31.183 8.99554C31.6529 9.7016 31.9032 10.5314 31.9022 11.38C31.9004 12.5166 31.4489 13.6061 30.6466 14.4098C29.8444 15.2135 28.7567 15.6657 27.6221 15.6675" fill="white"/>
</g>
<defs>
<clipPath id="clip0_15_174">
<rect width="94.9091" height="18" fill="white"/>
</clipPath>
</defs>
</svg>
